# xmcd
#
# Track frame offsets:
#       150
#       13155
#       23855
#       34917
#       44645
#       55167
#       66820
#       78005
#       88447
#       100779
#
# Disc length: 1514 seconds
#
# Revision: 1
# Processed by: cddbd v1.4PL0 Copyright (c) Steve Scherf et al.
# Submitted via: MusiCat 1.1
#
DISCID=7f05e80a
DTITLE=Faron Young - Four In The Morning
DYEAR=1900
DGENRE=
TTITLE0=Four In The Morning
TTITLE1=Memphis
TTITLE2=Live fast Love hard
TTITLE3=Alone With You
TTITLE4=Face to The Wall
TTITLE5=Unmitigated Gall
TTITLE6=Going steady
TTITLE7=I Could Never Be Ashamed Of You
TTITLE8=Country Girl
TTITLE9=Apartment #9
EXTD=\n\n
EXTT0=
EXTT1=
EXTT2=
EXTT3=
EXTT4=
EXTT5=
EXTT6=
EXTT7=
EXTT8=
EXTT9=
PLAYORDER=
